<?xml version="1.0" encoding="UTF-8" standalone="no"?>
<!-- Uploaded to: SVG Repo, www.svgrepo.com, Generator: SVG Repo Mixer Tools -->

<svg
   width="800px"
   height="800px"
   viewBox="0 0 32 32"
   fill="none"
   version="1.1"
   id="svg14"
   sodipodi:docname="insta.svg"
   inkscape:version="1.4 (86a8ad7, 2024-10-11)"
   xmlns:inkscape="http://www.inkscape.org/namespaces/inkscape"
   xmlns:sodipodi="http://sodipodi.sourceforge.net/DTD/sodipodi-0.dtd"
   xmlns="http://www.w3.org/2000/svg"
   xmlns:svg="http://www.w3.org/2000/svg">
  <sodipodi:namedview
     id="namedview14"
     pagecolor="#ffffff"
     bordercolor="#000000"
     borderopacity="0.25"
     inkscape:showpageshadow="2"
     inkscape:pageopacity="0.0"
     inkscape:pagecheckerboard="0"
     inkscape:deskcolor="#d1d1d1"
     inkscape:zoom="1.48625"
     inkscape:cx="400"
     inkscape:cy="561.48024"
     inkscape:window-width="2560"
     inkscape:window-height="1369"
     inkscape:window-x="2552"
     inkscape:window-y="-8"
     inkscape:window-maximized="1"
     inkscape:current-layer="svg14" />
  <rect
     x="0.0084104287"
     y="-0.018502923"
     width="31.983179"
     height="31.983181"
     rx="6.8535385"
     fill="url(#paint0_radial_87_7153)"
     id="rect1"
     style="fill:url(#paint0_radial_87_7153);stroke-width:1.14226" />
  <rect
     x="0.0084104287"
     y="-0.018502923"
     width="31.983179"
     height="31.983181"
     rx="6.8535385"
     fill="url(#paint1_radial_87_7153)"
     id="rect2"
     style="fill:url(#paint1_radial_87_7153);stroke-width:1.14226" />
  <rect
     x="0.0084104287"
     y="-0.018502923"
     width="31.983179"
     height="31.983181"
     rx="6.8535385"
     fill="url(#paint2_radial_87_7153)"
     id="rect3"
     style="fill:url(#paint2_radial_87_7153);stroke-width:1.14226" />
  <path
     d="m 23.995795,9.6906764 c 0,0.9462446 -0.76714,1.7133846 -1.713385,1.7133846 -0.946245,0 -1.713384,-0.76714 -1.713384,-1.7133846 0,-0.9462794 0.767139,-1.7133846 1.713384,-1.7133846 0.946245,0 1.713385,0.7671052 1.713385,1.7133846 z"
     fill="#ffffff"
     id="path3"
     style="stroke-width:1.14226" />
  <path
     fill-rule="evenodd"
     clip-rule="evenodd"
     d="m 16,21.684369 c 3.154227,0 5.711282,-2.557056 5.711282,-5.711282 0,-3.154227 -2.557055,-5.711282 -5.711282,-5.711282 -3.154227,0 -5.711282,2.557055 -5.711282,5.711282 0,3.154226 2.557055,5.711282 5.711282,5.711282 z m 0,-2.284513 c 1.892605,0 3.426769,-1.534164 3.426769,-3.426769 0,-1.892606 -1.534164,-3.426769 -3.426769,-3.426769 -1.892605,0 -3.426769,1.534163 -3.426769,3.426769 0,1.892605 1.534164,3.426769 3.426769,3.426769 z"
     fill="#ffffff"
     id="path4"
     style="stroke-width:1.14226" />
  <path
     fill-rule="evenodd"
     clip-rule="evenodd"
     d="m 4.577436,15.516184 c 0,-3.838325 0,-5.7575434 0.74699,-7.2235608 0.6570716,-1.2895846 1.7055259,-2.3380389 2.9951105,-2.9951106 1.4660176,-0.74699 3.3852365,-0.74699 7.2235605,-0.74699 h 0.913806 c 3.838324,0 5.757543,0 7.223515,0.74699 1.289607,0.6570717 2.338084,1.705526 2.99511,2.9951106 0.747036,1.4660174 0.747036,3.3852358 0.747036,7.2235608 v 0.913805 c 0,3.838325 0,5.757544 -0.747036,7.223515 -0.657026,1.289608 -1.705503,2.338086 -2.99511,2.995111 -1.465972,0.747036 -3.385191,0.747036 -7.223515,0.747036 h -0.913806 c -3.838324,0 -5.7575429,0 -7.2235605,-0.747036 C 7.0299519,25.99159 5.9814976,24.943112 5.324426,23.653504 4.577436,22.187533 4.577436,20.268314 4.577436,16.429989 Z M 15.543097,6.8350354 h 0.913806 c 1.956913,0 3.287071,0.00178 4.31533,0.085783 1.001645,0.081831 1.513832,0.2301532 1.87113,0.412206 0.859662,0.4380554 1.558609,1.1370249 1.996664,1.9966985 0.182076,0.3572978 0.330455,0.8694871 0.412241,1.8711311 0.08396,1.028259 0.08578,2.358416 0.08578,4.31533 v 0.913805 c 0,1.956915 -0.0018,3.287072 -0.08578,4.31533 -0.08179,1.001644 -0.230165,1.513832 -0.412241,1.871132 -0.438055,0.859661 -1.137002,1.558608 -1.996664,1.996663 -0.357298,0.182076 -0.869485,0.330454 -1.87113,0.412241 -1.028259,0.08396 -2.358417,0.08578 -4.31533,0.08578 h -0.913806 c -1.956913,0 -3.287071,-0.0018 -4.31533,-0.08578 C 10.226122,24.943568 9.7139346,24.79519 9.3566368,24.613114 8.4969632,24.175059 7.7979937,23.476112 7.3599383,22.616451 7.1778855,22.259151 7.0295635,21.746963 6.9477323,20.745319 6.8637307,19.717061 6.8619488,18.386904 6.8619488,16.429989 v -0.913805 c 0,-1.956914 0.00178,-3.287071 0.085783,-4.31533 C 7.0295628,10.19921 7.177885,9.6870212 7.3599378,9.3297234 7.7979937,8.4700498 8.4969632,7.7710803 9.3566368,7.333025 9.7139346,7.1509721 10.226122,7.0026502 11.227767,6.9208189 c 1.028259,-0.084002 2.358417,-0.085783 4.31533,-0.085784 z"
     fill="#ffffff"
     id="path5"
     style="stroke-width:1.14226" />
  <defs
     id="defs14">
    <radialGradient
       id="paint0_radial_87_7153"
       cx="0"
       cy="0"
       r="1"
       gradientUnits="userSpaceOnUse"
       gradientTransform="matrix(16.562736,-23.98737,23.987371,16.562735,11.430974,23.968881)">
      <stop
         stop-color="#B13589"
         id="stop5" />
      <stop
         offset="0.79309"
         stop-color="#C62F94"
         id="stop6" />
      <stop
         offset="1"
         stop-color="#8A3AC8"
         id="stop7" />
    </radialGradient>
    <radialGradient
       id="paint1_radial_87_7153"
       cx="0"
       cy="0"
       r="1"
       gradientUnits="userSpaceOnUse"
       gradientTransform="matrix(10.851415,-23.416206,23.416207,10.851414,10.288718,33.106931)">
      <stop
         stop-color="#E0E8B7"
         id="stop8" />
      <stop
         offset="0.444662"
         stop-color="#FB8A2E"
         id="stop9" />
      <stop
         offset="0.71474"
         stop-color="#E2425C"
         id="stop10" />
      <stop
         offset="1"
         stop-color="#E2425C"
         stop-opacity="0"
         id="stop11" />
    </radialGradient>
    <radialGradient
       id="paint2_radial_87_7153"
       cx="0"
       cy="0"
       r="1"
       gradientUnits="userSpaceOnUse"
       gradientTransform="matrix(43.976902,-6.2824123,1.3437429,9.4062025,-1.7049719,1.1237533)">
      <stop
         offset="0.156701"
         stop-color="#406ADC"
         id="stop12" />
      <stop
         offset="0.467799"
         stop-color="#6A45BE"
         id="stop13" />
      <stop
         offset="1"
         stop-color="#6A45BE"
         stop-opacity="0"
         id="stop14" />
    </radialGradient>
  </defs>
</svg>
